<?xml version="1.0" encoding="UTF-8"?><svg xmlns="http://www.w3.org/2000/svg" viewBox="0 0 171 171"><defs><style>.d{fill:#fff;}.e{fill:#9f9;}.f{fill:#ff3b66;}</style></defs><g id="a"/><g id="b"><g id="c"><g><rect class="d" y="0" width="171" height="171" rx="33.2" ry="33.2"/><g><path class="f" d="M147,79c0,38.38-27.53,88.5-61.5,88.5S24,117.38,24,79s28.03-39.5,62-39.5,61,1.12,61,39.5Z"/><g><rect class="d" x="41" y="122.5" width="5" height="0"/><g><ellipse class="d" cx="118.41" cy="65.52" rx="2.72" ry="6.34" transform="translate(-5.82 11.85) rotate(-5.59)"/><ellipse class="d" cx="81.55" cy="69.14" rx="2.54" ry="5.92" transform="translate(-4.68 5.93) rotate(-4.05)"/><ellipse class="d" cx="46.18" cy="70.41" rx="2.34" ry="5.46" transform="translate(-1.08 .72) rotate(-.88)"/></g><g><ellipse class="d" cx="84.67" cy="101.42" rx="2.29" ry="5.35" transform="translate(-12.75 12.18) rotate(-7.65)"/><ellipse class="d" cx="58.51" cy="98.68" rx="2.42" ry="5.65" transform="translate(-6.36 4.06) rotate(-3.77)"/></g><ellipse class="d" cx="110.18" cy="100.38" rx="2.76" ry="6.45" transform="translate(-6.21 7.27) rotate(-3.68)"/><g><ellipse class="d" cx="94.32" cy="132.69" rx="2.31" ry="5.38" transform="translate(-15.27 12.3) rotate(-6.9)"/><ellipse class="d" cx="62.42" cy="131.24" rx="2.24" ry="5.24" transform="translate(-7.37 3.77) rotate(-3.26)"/></g></g><path class="e" d="M71.5,28.5c2-11,10-25,10-25l7,4s-11,17-11,21,16-3,24-1,18,13,31,13-29,16-34,6l18,12s-33-1-38-10c0,0-30,11-31,6l16-11h-1s-25,3-31-5c0,0,16-7,22-5s18-5,18-5Z"/></g></g></g></g></svg>